<svg width="214" height="28" viewBox="0 0 214 28" fill="none" xmlns="http://www.w3.org/2000/svg">
<path d="M2.54139e-05 17.226V1.517H10.143V4.185H3.17403V8.923H8.87803V11.591H3.17403V17.226H2.54139e-05ZM11.4283 17.226V5.68H14.4873V7.037C14.748 6.83766 15.07 6.63066 15.4533 6.416C15.8367 6.186 16.2507 5.979 16.6953 5.795C17.1553 5.59566 17.5923 5.46533 18.0063 5.404V8.371C17.6077 8.43233 17.186 8.53966 16.7413 8.693C16.2967 8.831 15.875 8.98433 15.4763 9.153C15.093 9.32166 14.7633 9.475 14.4873 9.613V17.226H11.4283ZM23.2841 17.479C22.2874 17.479 21.5131 17.272 20.9611 16.858C20.4244 16.4287 20.0411 15.7847 19.8111 14.926C19.5964 14.0673 19.4891 12.9863 19.4891 11.683V5.68H22.5481V11.545C22.5481 12.3577 22.5864 13.0017 22.6631 13.477C22.7551 13.9523 22.9314 14.2897 23.1921 14.489C23.4528 14.6883 23.8284 14.788 24.3191 14.788C24.7944 14.788 25.2391 14.7267 25.6531 14.604C26.0671 14.4813 26.3968 14.3587 26.6421 14.236V5.68H29.7011V17.226H26.6651V16.513C26.1438 16.8043 25.6224 17.042 25.1011 17.226C24.5951 17.3947 23.9894 17.479 23.2841 17.479ZM32.2272 17.226V5.68H35.2862V17.226H32.2272ZM32.2272 3.84V1.218H35.3092V3.84H32.2272ZM41.8904 17.502C41.0471 17.502 40.3647 17.3793 39.8434 17.134C39.3221 16.8887 38.9464 16.467 38.7164 15.869C38.5017 15.2557 38.3944 14.4047 38.3944 13.316V8.233H37.0374V5.68H38.3944V2.621H41.4534V5.68H44.3974V8.233H41.4534V12.511C41.4534 13.109 41.4764 13.5767 41.5224 13.914C41.5837 14.2513 41.7064 14.489 41.8904 14.627C42.0744 14.765 42.3581 14.834 42.7414 14.834C42.8487 14.834 43.0097 14.8263 43.2244 14.811C43.4391 14.7957 43.6537 14.7803 43.8684 14.765C44.0831 14.7497 44.2594 14.7343 44.3974 14.719L44.4894 17.18C44.2594 17.226 43.9757 17.272 43.6384 17.318C43.3164 17.364 42.9944 17.4023 42.6724 17.433C42.3657 17.479 42.1051 17.502 41.8904 17.502Z" fill="#1B5E37"/>
<path d="M46.292 17.226V1.517H49.466V8.072H55.561V1.517H58.735V17.226H55.561V10.74H49.466V17.226H46.292ZM67.5438 17.479C66.2558 17.479 65.1595 17.3103 64.2548 16.973C63.3655 16.6357 62.6908 16.076 62.2308 15.294C61.7708 14.4967 61.5408 13.4387 61.5408 12.12V1.517H64.7148V12.235C64.7148 13.1397 64.9525 13.7913 65.4278 14.19C65.9185 14.5887 66.6238 14.788 67.5438 14.788C68.5098 14.788 69.2382 14.5887 69.7288 14.19C70.2195 13.7913 70.4648 13.1397 70.4648 12.235V1.517H73.6388V12.074C73.6388 13.3927 73.4012 14.4507 72.9258 15.248C72.4658 16.0453 71.7835 16.6203 70.8788 16.973C69.9895 17.3103 68.8778 17.479 67.5438 17.479ZM76.4121 17.226V1.517H82.6681C83.7108 1.517 84.6078 1.64733 85.3591 1.908C86.1105 2.16866 86.6931 2.59033 87.1071 3.173C87.5365 3.74033 87.7511 4.507 87.7511 5.473C87.7511 6.13233 87.6821 6.692 87.5441 7.152C87.4215 7.59666 87.2221 7.98 86.9461 8.302C86.6855 8.60866 86.3405 8.89233 85.9111 9.153C86.3711 9.32166 86.7698 9.55166 87.1071 9.843C87.4598 10.119 87.7281 10.4947 87.9121 10.97C88.0961 11.43 88.1881 12.0433 88.1881 12.81C88.1881 13.6533 88.0578 14.3587 87.7971 14.926C87.5365 15.4933 87.1608 15.9457 86.6701 16.283C86.1948 16.6203 85.6351 16.8657 84.9911 17.019C84.3471 17.157 83.6418 17.226 82.8751 17.226H76.4121ZM79.5861 14.88H82.6451C83.1818 14.88 83.6265 14.8187 83.9791 14.696C84.3471 14.558 84.6231 14.3203 84.8071 13.983C85.0065 13.6457 85.1061 13.178 85.1061 12.58C85.1061 12.12 85.0295 11.7443 84.8761 11.453C84.7228 11.1617 84.5235 10.947 84.2781 10.809C84.0328 10.6557 83.7568 10.5483 83.4501 10.487C83.1588 10.4257 82.8675 10.395 82.5761 10.395H79.5861V14.88ZM79.5861 8.141H82.5531C83.0745 8.141 83.4961 8.06433 83.8181 7.911C84.1401 7.74233 84.3778 7.497 84.5311 7.175C84.6845 6.83766 84.7611 6.416 84.7611 5.91C84.7611 5.18933 84.5695 4.668 84.1861 4.346C83.8181 4.024 83.2355 3.863 82.4381 3.863H79.5861V8.141Z" fill="#F4A91F"/>
<path d="M101.99 22.93C100.993 22.93 100.066 22.7843 99.2069 22.493C98.3636 22.217 97.6276 21.826 96.9989 21.32C96.3703 20.8293 95.8719 20.239 95.5039 19.549C95.1513 18.8743 94.9749 18.1383 94.9749 17.341C94.9749 17.0497 94.9979 16.674 95.0439 16.214C95.0899 15.754 95.1513 15.225 95.2279 14.627C95.3199 14.029 95.4196 13.3927 95.5269 12.718L98.5629 13.132C98.4096 14.098 98.2869 14.9567 98.1949 15.708C98.1029 16.4593 98.0569 16.9883 98.0569 17.295C98.0569 17.8777 98.2179 18.3913 98.5399 18.836C98.8619 19.2807 99.3143 19.6257 99.8969 19.871C100.495 20.1317 101.193 20.262 101.99 20.262H108.499C109.496 20.262 110.239 20.009 110.73 19.503C111.221 18.997 111.466 18.261 111.466 17.295V16.421H114.525V17.295C114.525 18.399 114.28 19.3727 113.789 20.216C113.298 21.0593 112.601 21.7187 111.696 22.194C110.807 22.6847 109.741 22.93 108.499 22.93H101.99ZM110.454 17.226C109.749 17.226 109.066 17.1493 108.407 16.996C107.763 16.8427 107.15 16.5667 106.567 16.168L108.315 13.96C108.56 14.1287 108.775 14.259 108.959 14.351C109.158 14.4277 109.373 14.4813 109.603 14.512C109.848 14.5427 110.132 14.558 110.454 14.558H115.537V17.226H110.454ZM115.537 17.226V14.558C115.614 14.558 115.683 14.5887 115.744 14.65C115.805 14.7113 115.851 14.8033 115.882 14.926C115.913 15.0487 115.936 15.1943 115.951 15.363C115.982 15.5163 115.997 15.6927 115.997 15.892C115.997 16.0913 115.982 16.2753 115.951 16.444C115.936 16.6127 115.913 16.7583 115.882 16.881C115.851 16.9883 115.805 17.0727 115.744 17.134C115.683 17.1953 115.614 17.226 115.537 17.226ZM101.208 27.668V25.046H104.175V27.668H101.208ZM105.394 27.668V25.046H108.361V27.668H105.394ZM110.406 17.226V14.558H121.147L120.204 15.363V7.681L120.986 8.348H118.088C117.414 8.348 116.885 8.43233 116.501 8.601C116.118 8.76966 115.85 9.084 115.696 9.544C115.543 9.98866 115.466 10.625 115.466 11.453C115.466 12.3577 115.543 13.0323 115.696 13.477C115.85 13.9063 116.118 14.1977 116.501 14.351C116.885 14.489 117.414 14.558 118.088 14.558V16.95C116.785 16.95 115.712 16.766 114.868 16.398C114.025 16.03 113.396 15.4473 112.982 14.65C112.584 13.8373 112.384 12.7717 112.384 11.453C112.384 10.1957 112.584 9.13766 112.982 8.279C113.396 7.42033 114.025 6.77633 114.868 6.347C115.712 5.90233 116.785 5.68 118.088 5.68H123.286V17.226H110.406ZM110.406 17.226C110.314 17.226 110.245 17.1953 110.199 17.134C110.138 17.0727 110.092 16.9883 110.061 16.881C110.015 16.7583 109.985 16.6127 109.969 16.444C109.954 16.2753 109.946 16.0913 109.946 15.892C109.946 15.616 109.962 15.386 109.992 15.202C110.023 15.0027 110.077 14.8493 110.153 14.742C110.215 14.6193 110.299 14.558 110.406 14.558V17.226ZM116.869 3.564V0.941998H119.951V3.564H116.869ZM147.774 17.226V14.558H150.189V17.226H147.774ZM138.39 17.226C136.749 17.226 135.361 17.0113 134.227 16.582C133.107 16.1527 132.256 15.5163 131.674 14.673C131.106 13.8297 130.823 12.7793 130.823 11.522C130.823 11.154 130.846 10.7707 130.892 10.372C130.938 9.958 130.991 9.567 131.053 9.199C131.129 8.81566 131.198 8.47833 131.26 8.187C131.321 7.89566 131.367 7.681 131.398 7.543L134.388 8.118C134.342 8.36333 134.28 8.67766 134.204 9.061C134.127 9.44433 134.058 9.85066 133.997 10.28C133.935 10.694 133.905 11.0927 133.905 11.476C133.905 12.074 133.997 12.5723 134.181 12.971C134.38 13.3697 134.671 13.6917 135.055 13.937C135.438 14.167 135.921 14.328 136.504 14.42C137.086 14.512 137.769 14.558 138.551 14.558H146.486L144.692 16.053V0.964998H147.774V17.226H138.39ZM150.189 17.226V14.558C150.281 14.558 150.35 14.5887 150.396 14.65C150.457 14.7113 150.503 14.8033 150.534 14.926C150.58 15.0487 150.61 15.1943 150.626 15.363C150.641 15.5163 150.649 15.6927 150.649 15.892C150.649 16.0913 150.641 16.2753 150.626 16.444C150.61 16.6127 150.58 16.7583 150.534 16.881C150.503 16.9883 150.457 17.0727 150.396 17.134C150.35 17.1953 150.281 17.226 150.189 17.226ZM137.907 8.555C137.615 8.20233 137.393 7.865 137.24 7.543C137.086 7.221 137.01 6.876 137.01 6.508C137.01 5.98666 137.148 5.519 137.424 5.105C137.7 4.67566 138.06 4.346 138.505 4.116C138.949 3.87066 139.44 3.748 139.977 3.748C140.268 3.748 140.567 3.78633 140.874 3.863C141.18 3.93966 141.441 4.05466 141.656 4.208L140.874 5.611C140.736 5.53433 140.598 5.48833 140.46 5.473C140.337 5.44233 140.207 5.427 140.069 5.427C139.701 5.427 139.417 5.52666 139.218 5.726C139.018 5.91 138.919 6.163 138.919 6.485C138.919 6.669 138.957 6.84533 139.034 7.014C139.11 7.18266 139.225 7.36666 139.379 7.566L137.907 8.555ZM136.504 8.739V7.06H142.07V8.739H136.504ZM150.185 17.226V14.558H154.394L152.6 16.053V5.68H155.682V17.226H150.185ZM150.185 17.226C150.093 17.226 150.024 17.1953 149.978 17.134C149.916 17.0727 149.87 16.9883 149.84 16.881C149.794 16.7583 149.763 16.6127 149.748 16.444C149.732 16.2753 149.725 16.0913 149.725 15.892C149.725 15.616 149.74 15.386 149.771 15.202C149.801 15.0027 149.855 14.8493 149.932 14.742C149.993 14.6193 150.077 14.558 150.185 14.558V17.226ZM152.6 22.125V19.503H155.682V22.125H152.6ZM167.488 17.226V14.558H170.11V17.226H167.488ZM164.429 17.226V0.964998H167.488V17.226H164.429ZM170.11 17.226V14.558C170.202 14.558 170.271 14.5887 170.317 14.65C170.378 14.7113 170.424 14.8033 170.455 14.926C170.501 15.0487 170.531 15.1943 170.547 15.363C170.562 15.5163 170.57 15.6927 170.57 15.892C170.57 16.0913 170.562 16.2753 170.547 16.444C170.531 16.6127 170.501 16.7583 170.455 16.881C170.424 16.9883 170.378 17.0727 170.317 17.134C170.271 17.1953 170.202 17.226 170.11 17.226ZM171.511 3.335V2.3H176.617V3.335H171.511ZM171.511 1.035V-3.45707e-06H176.617V1.035H171.511ZM175.605 17.226V14.558H178.02V17.226H175.605ZM170.108 17.226C170.016 17.226 169.947 17.1953 169.901 17.134C169.839 17.0727 169.793 16.9883 169.763 16.881C169.717 16.7583 169.686 16.6127 169.671 16.444C169.655 16.2753 169.648 16.0913 169.648 15.892C169.648 15.616 169.663 15.386 169.694 15.202C169.724 15.0027 169.778 14.8493 169.855 14.742C169.916 14.6193 170 14.558 170.108 14.558V17.226ZM170.108 17.226V14.558H174.317L172.523 16.053V5.68H175.605V17.226H170.108ZM178.02 17.226V14.558C178.112 14.558 178.188 14.5887 178.25 14.65C178.311 14.7113 178.357 14.8033 178.388 14.926C178.418 15.0487 178.441 15.1943 178.457 15.363C178.472 15.5163 178.48 15.6927 178.48 15.892C178.48 16.0913 178.472 16.2753 178.457 16.444C178.441 16.6127 178.418 16.7583 178.388 16.881C178.357 16.9883 178.311 17.0727 178.25 17.134C178.188 17.1953 178.112 17.226 178.02 17.226ZM172.523 22.125V19.503H175.605V22.125H172.523ZM178.014 17.226V14.558H187.904L186.869 15.409V11.154C186.869 10.234 186.578 9.53633 185.995 9.061C185.428 8.58566 184.523 8.348 183.281 8.348C182.928 8.348 182.445 8.37866 181.832 8.44C181.219 8.486 180.552 8.56266 179.831 8.67L179.532 6.232C180.191 6.07866 180.858 5.94833 181.533 5.841C182.223 5.73366 182.898 5.68 183.557 5.68C184.814 5.68 185.918 5.90233 186.869 6.347C187.82 6.77633 188.563 7.39733 189.1 8.21C189.652 9.02266 189.928 10.004 189.928 11.154V17.226H178.014ZM178.014 17.226C177.922 17.226 177.853 17.1953 177.807 17.134C177.746 17.0727 177.7 16.9883 177.669 16.881C177.623 16.7583 177.592 16.6127 177.577 16.444C177.562 16.2753 177.554 16.0913 177.554 15.892C177.554 15.616 177.569 15.386 177.6 15.202C177.631 15.0027 177.684 14.8493 177.761 14.742C177.822 14.6193 177.907 14.558 178.014 14.558V17.226ZM196.647 17.226V14.558H199.614V17.226H196.647ZM192.185 22.93C191.985 22.93 191.771 22.9223 191.541 22.907C191.311 22.8917 191.073 22.8687 190.828 22.838L190.943 20.216C191.188 20.2313 191.418 20.2467 191.633 20.262C191.863 20.2773 192.031 20.285 192.139 20.285C192.737 20.285 193.212 20.0473 193.565 19.572C193.933 19.0967 194.117 18.4297 194.117 17.571V5.68H197.199V17.571C197.199 18.6137 196.984 19.5413 196.555 20.354C196.141 21.1667 195.558 21.7953 194.807 22.24C194.055 22.7 193.181 22.93 192.185 22.93ZM199.614 17.226V14.558C199.706 14.558 199.775 14.5887 199.821 14.65C199.882 14.7113 199.928 14.8033 199.959 14.926C200.005 15.0487 200.035 15.1943 200.051 15.363C200.066 15.5163 200.074 15.6927 200.074 15.892C200.074 16.0913 200.066 16.2753 200.051 16.444C200.035 16.6127 200.005 16.7583 199.959 16.881C199.928 16.9883 199.882 17.0727 199.821 17.134C199.775 17.1953 199.706 17.226 199.614 17.226ZM199.621 17.226V14.558H211.558L210.155 15.754V11.522C210.155 10.694 210.063 10.05 209.879 9.59C209.695 9.11466 209.373 8.785 208.913 8.601C208.469 8.40166 207.848 8.302 207.05 8.302C206.422 8.302 205.801 8.348 205.187 8.44C204.589 8.51666 204.122 8.624 203.784 8.762L205.693 6.968C205.601 7.32066 205.509 7.76533 205.417 8.302C205.341 8.83866 205.272 9.41366 205.21 10.027C205.149 10.625 205.118 11.2153 205.118 11.798C205.118 12.3347 205.141 12.8943 205.187 13.477C205.249 14.0597 205.31 14.5733 205.371 15.018C205.448 15.4627 205.509 15.7693 205.555 15.938L202.634 16.743C202.573 16.5283 202.496 16.1757 202.404 15.685C202.312 15.1943 202.228 14.6117 202.151 13.937C202.09 13.2623 202.059 12.5493 202.059 11.798C202.059 11.0313 202.098 10.2953 202.174 9.59C202.251 8.86933 202.335 8.22533 202.427 7.658C202.535 7.07533 202.634 6.60766 202.726 6.255C203.094 6.117 203.669 5.979 204.451 5.841C205.233 5.703 206.1 5.634 207.05 5.634C208.43 5.634 209.573 5.82566 210.477 6.209C211.397 6.59233 212.08 7.21333 212.524 8.072C212.984 8.93066 213.214 10.0883 213.214 11.545V17.226H199.621ZM199.621 17.226C199.529 17.226 199.46 17.1953 199.414 17.134C199.353 17.0727 199.307 16.9883 199.276 16.881C199.23 16.7583 199.2 16.6127 199.184 16.444C199.169 16.2753 199.161 16.0913 199.161 15.892C199.161 15.616 199.177 15.386 199.207 15.202C199.238 15.0027 199.292 14.8493 199.368 14.742C199.43 14.6193 199.514 14.558 199.621 14.558V17.226Z" fill="#0C0D0D"/>
</svg>
